<svg version="1.0" xmlns="http://www.w3.org/2000/svg" width="200.000000ptpx" height="200.000000ptpx" viewBox="0 0 200.000000 200.000000" preserveAspectRatio="xMidYMid meet" transform="rotate(0) scale(1, 1)">

<g transform="translate(0.000000,200.000000) scale(0.100000,-0.100000)" fill="#88cc7d" stroke="none">
<path d="M1533 1828 l-22 -21 43 -51 c95 -113 157 -230 198 -372 20 -68 23&#10;-101 22 -239 0 -133 -4 -174 -22 -240 -69 -252 -253 -474 -487 -590 -145 -72&#10;-222 -89 -410 -89 -138 -1 -171 2 -239 22 -143 41 -259 103 -372 199 l-51 43&#10;-22 -24 -22 -23 51 -46 c276 -248 690 -315 1040 -168 231 97 434 300 531 531&#10;115 273 102 586 -36 847 -44 83 -112 179 -157 220 l-24 23 -21 -22z"/>
<path d="M1415 1671 c-41 -26 -513 -501 -498 -501 7 0 166 25 355 56 337 54&#10;344 56 371 85 15 16 27 38 27 49 0 22 -136 294 -155 310 -25 20 -69 21 -100 1z"/>
<path d="M1241 1189 c-173 -27 -317 -52 -320 -54 -2 -3 -2 -7 0 -9 20 -19 635&#10;-316 653 -316 14 0 37 10 51 23 23 20 28 39 51 177 20 125 22 160 13 183 -25&#10;60 -39 60 -448 -4z"/>
<path d="M900 1092 c0 -20 313 -618 332 -634 11 -10 36 -18 57 -18 34 0 47 10&#10;154 118 129 131 140 156 95 206 -13 13 -158 93 -323 178 -350 179 -315 162&#10;-315 150z"/>
<path d="M563 837 c-236 -236 -253 -256 -253 -289 0 -20 8 -45 17 -56 31 -36&#10;265 -152 306 -152 41 0 73 25 82 62 16 71 106 652 103 669 -2 16 -58 -35 -255&#10;-234z"/>
<path d="M856 1068 c-3 -7 -28 -165 -57 -351 -55 -365 -55 -369 -4 -403 24&#10;-15 34 -15 168 5 176 27 195 35 214 80 l15 35 -158 319 c-88 175 -162 321&#10;-167 323 -4 3 -9 -1 -11 -8z"/>
</g>
</svg>